<svg id="visual" viewBox="0 0 1080 1920" width="1080" height="1920" xmlns="http://www.w3.org/2000/svg" xmlns:xlink="http://www.w3.org/1999/xlink" version="1.1"><rect x="0" y="0" width="1080" height="1920" fill="#b90056"></rect><path d="M0 451L25.7 440C51.3 429 102.7 407 154.2 399C205.7 391 257.3 397 308.8 408.5C360.3 420 411.7 437 463 427.8C514.3 418.7 565.7 383.3 617 346.2C668.3 309 719.7 270 771.2 304C822.7 338 874.3 445 925.8 496C977.3 547 1028.7 542 1054.3 539.5L1080 537L1080 0L1054.3 0C1028.7 0 977.3 0 925.8 0C874.3 0 822.7 0 771.2 0C719.7 0 668.3 0 617 0C565.7 0 514.3 0 463 0C411.7 0 360.3 0 308.8 0C257.3 0 205.7 0 154.2 0C102.7 0 51.3 0 25.7 0L0 0Z" fill="#ec0470" stroke-linecap="round" stroke-linejoin="miter"></path></svg>